<mxfile host="app.diagrams.net" modified="2024-07-21T20:01:51.490Z" agent="Mozilla/5.0 (X11; Linux x86_64) AppleWebKit/537.36 (KHTML, like Gecko) Chrome/126.0.0.0 Safari/537.36" etag="Dfwjk2kci6D43ul91ybV" version="24.7.1" type="device">
  <diagram name="Page-1" id="9ptvOtILnGRsKAz1mw87">
    <mxGraphModel dx="2455" dy="893" grid="1" gridSize="10" guides="1" tooltips="1" connect="1" arrows="1" fold="1" page="1" pageScale="1" pageWidth="850" pageHeight="1100" math="0" shadow="0">
      <root>
        <mxCell id="0" />
        <mxCell id="1" parent="0" />
        <mxCell id="hZd-YJ0nv2Q1k8pyYEeG-302" value="" style="rounded=0;whiteSpace=wrap;html=1;dashed=1;" parent="1" vertex="1">
          <mxGeometry x="-670" y="590" width="500" height="740" as="geometry" />
        </mxCell>
        <mxCell id="hZd-YJ0nv2Q1k8pyYEeG-263" value="" style="rounded=0;whiteSpace=wrap;html=1;dashed=1;gradientColor=none;fillColor=default;" parent="1" vertex="1">
          <mxGeometry x="-70" y="490" width="980" height="1370" as="geometry" />
        </mxCell>
        <mxCell id="hZd-YJ0nv2Q1k8pyYEeG-1" value="" style="rounded=0;whiteSpace=wrap;html=1;" parent="1" vertex="1">
          <mxGeometry x="310" y="170" width="230" height="150" as="geometry" />
        </mxCell>
        <mxCell id="hZd-YJ0nv2Q1k8pyYEeG-2" value="" style="endArrow=classic;html=1;rounded=0;entryX=0.25;entryY=0;entryDx=0;entryDy=0;" parent="1" target="hZd-YJ0nv2Q1k8pyYEeG-1" edge="1">
          <mxGeometry width="50" height="50" relative="1" as="geometry">
            <mxPoint x="368" y="120" as="sourcePoint" />
            <mxPoint x="390" y="90" as="targetPoint" />
          </mxGeometry>
        </mxCell>
        <mxCell id="hZd-YJ0nv2Q1k8pyYEeG-3" value="" style="endArrow=classic;html=1;rounded=0;entryX=0.25;entryY=0;entryDx=0;entryDy=0;" parent="1" edge="1">
          <mxGeometry width="50" height="50" relative="1" as="geometry">
            <mxPoint x="430" y="120" as="sourcePoint" />
            <mxPoint x="430" y="170" as="targetPoint" />
          </mxGeometry>
        </mxCell>
        <mxCell id="hZd-YJ0nv2Q1k8pyYEeG-4" value="" style="endArrow=classic;html=1;rounded=0;entryX=0.25;entryY=0;entryDx=0;entryDy=0;" parent="1" edge="1">
          <mxGeometry width="50" height="50" relative="1" as="geometry">
            <mxPoint x="490" y="120" as="sourcePoint" />
            <mxPoint x="490" y="170" as="targetPoint" />
          </mxGeometry>
        </mxCell>
        <mxCell id="hZd-YJ0nv2Q1k8pyYEeG-5" value="Start_i" style="text;html=1;align=center;verticalAlign=middle;whiteSpace=wrap;rounded=0;" parent="1" vertex="1">
          <mxGeometry x="330" y="180" width="60" height="30" as="geometry" />
        </mxCell>
        <mxCell id="hZd-YJ0nv2Q1k8pyYEeG-6" value="X_i" style="text;html=1;align=center;verticalAlign=middle;whiteSpace=wrap;rounded=0;" parent="1" vertex="1">
          <mxGeometry x="400" y="180" width="60" height="30" as="geometry" />
        </mxCell>
        <mxCell id="hZd-YJ0nv2Q1k8pyYEeG-7" value="Y_i" style="text;html=1;align=center;verticalAlign=middle;whiteSpace=wrap;rounded=0;" parent="1" vertex="1">
          <mxGeometry x="460" y="180" width="60" height="30" as="geometry" />
        </mxCell>
        <mxCell id="hZd-YJ0nv2Q1k8pyYEeG-8" value="" style="endArrow=classic;html=1;rounded=0;entryX=0;entryY=0.432;entryDx=0;entryDy=0;entryPerimeter=0;" parent="1" target="hZd-YJ0nv2Q1k8pyYEeG-1" edge="1">
          <mxGeometry width="50" height="50" relative="1" as="geometry">
            <mxPoint x="230" y="235" as="sourcePoint" />
            <mxPoint x="280" y="200" as="targetPoint" />
          </mxGeometry>
        </mxCell>
        <mxCell id="hZd-YJ0nv2Q1k8pyYEeG-9" value="RST" style="text;html=1;align=center;verticalAlign=middle;whiteSpace=wrap;rounded=0;" parent="1" vertex="1">
          <mxGeometry x="320" y="220" width="60" height="30" as="geometry" />
        </mxCell>
        <mxCell id="hZd-YJ0nv2Q1k8pyYEeG-10" value="" style="endArrow=classic;html=1;rounded=0;entryX=0;entryY=0.432;entryDx=0;entryDy=0;entryPerimeter=0;" parent="1" edge="1">
          <mxGeometry width="50" height="50" relative="1" as="geometry">
            <mxPoint x="230" y="290" as="sourcePoint" />
            <mxPoint x="310" y="290" as="targetPoint" />
          </mxGeometry>
        </mxCell>
        <mxCell id="hZd-YJ0nv2Q1k8pyYEeG-13" value="CLK" style="text;html=1;align=center;verticalAlign=middle;whiteSpace=wrap;rounded=0;" parent="1" vertex="1">
          <mxGeometry x="320" y="270" width="60" height="30" as="geometry" />
        </mxCell>
        <mxCell id="hZd-YJ0nv2Q1k8pyYEeG-15" value="" style="endArrow=classic;html=1;rounded=0;exitX=0.5;exitY=1;exitDx=0;exitDy=0;" parent="1" source="hZd-YJ0nv2Q1k8pyYEeG-1" edge="1">
          <mxGeometry width="50" height="50" relative="1" as="geometry">
            <mxPoint x="405" y="360" as="sourcePoint" />
            <mxPoint x="425" y="390" as="targetPoint" />
          </mxGeometry>
        </mxCell>
        <mxCell id="hZd-YJ0nv2Q1k8pyYEeG-16" value="GCD_o" style="text;html=1;align=center;verticalAlign=middle;whiteSpace=wrap;rounded=0;" parent="1" vertex="1">
          <mxGeometry x="395" y="280" width="60" height="30" as="geometry" />
        </mxCell>
        <mxCell id="hZd-YJ0nv2Q1k8pyYEeG-17" value="Done_o" style="text;html=1;align=center;verticalAlign=middle;whiteSpace=wrap;rounded=0;" parent="1" vertex="1">
          <mxGeometry x="470" y="280" width="60" height="30" as="geometry" />
        </mxCell>
        <mxCell id="hZd-YJ0nv2Q1k8pyYEeG-18" value="" style="endArrow=classic;html=1;rounded=0;exitX=0.5;exitY=1;exitDx=0;exitDy=0;" parent="1" edge="1">
          <mxGeometry width="50" height="50" relative="1" as="geometry">
            <mxPoint x="499.5" y="320" as="sourcePoint" />
            <mxPoint x="499.5" y="390" as="targetPoint" />
          </mxGeometry>
        </mxCell>
        <mxCell id="hZd-YJ0nv2Q1k8pyYEeG-20" value="DATAPATH" style="text;html=1;align=center;verticalAlign=middle;whiteSpace=wrap;rounded=0;" parent="1" vertex="1">
          <mxGeometry x="850" y="490" width="60" height="30" as="geometry" />
        </mxCell>
        <mxCell id="hZd-YJ0nv2Q1k8pyYEeG-21" value="" style="shape=trapezoid;perimeter=trapezoidPerimeter;whiteSpace=wrap;html=1;fixedSize=1;rotation=180;" parent="1" vertex="1">
          <mxGeometry x="140" y="760" width="120" height="60" as="geometry" />
        </mxCell>
        <mxCell id="hZd-YJ0nv2Q1k8pyYEeG-24" value="X_i" style="text;html=1;align=center;verticalAlign=middle;whiteSpace=wrap;rounded=0;" parent="1" vertex="1">
          <mxGeometry x="180" y="460" width="60" height="30" as="geometry" />
        </mxCell>
        <mxCell id="hZd-YJ0nv2Q1k8pyYEeG-25" value="Y_i" style="text;html=1;align=center;verticalAlign=middle;whiteSpace=wrap;rounded=0;" parent="1" vertex="1">
          <mxGeometry x="630" y="460" width="60" height="30" as="geometry" />
        </mxCell>
        <mxCell id="hZd-YJ0nv2Q1k8pyYEeG-35" value="" style="rounded=0;whiteSpace=wrap;html=1;" parent="1" vertex="1">
          <mxGeometry x="310" y="580" width="160" height="110" as="geometry" />
        </mxCell>
        <mxCell id="hZd-YJ0nv2Q1k8pyYEeG-37" value="" style="edgeStyle=elbowEdgeStyle;elbow=vertical;endArrow=classic;html=1;curved=0;rounded=0;endSize=8;startSize=8;entryX=0.308;entryY=0;entryDx=0;entryDy=0;entryPerimeter=0;" parent="1" edge="1">
          <mxGeometry width="50" height="50" relative="1" as="geometry">
            <mxPoint x="170" y="460" as="sourcePoint" />
            <mxPoint x="349.28" y="580" as="targetPoint" />
            <Array as="points">
              <mxPoint x="170" y="500" />
            </Array>
          </mxGeometry>
        </mxCell>
        <mxCell id="hZd-YJ0nv2Q1k8pyYEeG-38" value="" style="edgeStyle=elbowEdgeStyle;elbow=vertical;endArrow=classic;html=1;curved=0;rounded=0;endSize=8;startSize=8;entryX=0.668;entryY=-0.011;entryDx=0;entryDy=0;entryPerimeter=0;" parent="1" edge="1">
          <mxGeometry width="50" height="50" relative="1" as="geometry">
            <mxPoint x="630" y="460" as="sourcePoint" />
            <mxPoint x="436.8800000000001" y="578.79" as="targetPoint" />
            <Array as="points">
              <mxPoint x="530" y="500" />
            </Array>
          </mxGeometry>
        </mxCell>
        <mxCell id="hZd-YJ0nv2Q1k8pyYEeG-40" value="Comp &amp;lt;&amp;nbsp;" style="text;html=1;align=center;verticalAlign=middle;whiteSpace=wrap;rounded=0;" parent="1" vertex="1">
          <mxGeometry x="365" y="620" width="60" height="30" as="geometry" />
        </mxCell>
        <mxCell id="hZd-YJ0nv2Q1k8pyYEeG-44" value="" style="endArrow=classic;html=1;rounded=0;exitX=0.5;exitY=1;exitDx=0;exitDy=0;" parent="1" source="hZd-YJ0nv2Q1k8pyYEeG-35" edge="1">
          <mxGeometry width="50" height="50" relative="1" as="geometry">
            <mxPoint x="375" y="780" as="sourcePoint" />
            <mxPoint x="390" y="740" as="targetPoint" />
          </mxGeometry>
        </mxCell>
        <mxCell id="hZd-YJ0nv2Q1k8pyYEeG-45" value="X_lt_Y" style="text;html=1;align=center;verticalAlign=middle;whiteSpace=wrap;rounded=0;fillColor=#f8cecc;strokeColor=#b85450;" parent="1" vertex="1">
          <mxGeometry x="395" y="700" width="60" height="30" as="geometry" />
        </mxCell>
        <mxCell id="hZd-YJ0nv2Q1k8pyYEeG-46" value="" style="shape=trapezoid;perimeter=trapezoidPerimeter;whiteSpace=wrap;html=1;fixedSize=1;rotation=180;" parent="1" vertex="1">
          <mxGeometry x="560" y="760" width="120" height="60" as="geometry" />
        </mxCell>
        <mxCell id="hZd-YJ0nv2Q1k8pyYEeG-47" value="" style="endArrow=classic;html=1;rounded=0;entryX=0.75;entryY=1;entryDx=0;entryDy=0;" parent="1" target="hZd-YJ0nv2Q1k8pyYEeG-21" edge="1">
          <mxGeometry width="50" height="50" relative="1" as="geometry">
            <mxPoint x="170" y="500" as="sourcePoint" />
            <mxPoint x="160" y="530" as="targetPoint" />
          </mxGeometry>
        </mxCell>
        <mxCell id="hZd-YJ0nv2Q1k8pyYEeG-48" value="" style="endArrow=classic;html=1;rounded=0;entryX=0.427;entryY=1.014;entryDx=0;entryDy=0;entryPerimeter=0;" parent="1" target="hZd-YJ0nv2Q1k8pyYEeG-46" edge="1">
          <mxGeometry width="50" height="50" relative="1" as="geometry">
            <mxPoint x="630" y="490" as="sourcePoint" />
            <mxPoint x="640" y="760" as="targetPoint" />
          </mxGeometry>
        </mxCell>
        <mxCell id="hZd-YJ0nv2Q1k8pyYEeG-52" value="" style="endArrow=classic;html=1;rounded=0;" parent="1" target="hZd-YJ0nv2Q1k8pyYEeG-21" edge="1">
          <mxGeometry width="50" height="50" relative="1" as="geometry">
            <mxPoint x="50" y="790" as="sourcePoint" />
            <mxPoint x="80" y="760" as="targetPoint" />
          </mxGeometry>
        </mxCell>
        <mxCell id="hZd-YJ0nv2Q1k8pyYEeG-53" value="" style="endArrow=classic;html=1;rounded=0;" parent="1" edge="1">
          <mxGeometry width="50" height="50" relative="1" as="geometry">
            <mxPoint x="470" y="789.5" as="sourcePoint" />
            <mxPoint x="570" y="789.5" as="targetPoint" />
          </mxGeometry>
        </mxCell>
        <mxCell id="hZd-YJ0nv2Q1k8pyYEeG-56" value="" style="edgeStyle=elbowEdgeStyle;elbow=vertical;endArrow=classic;html=1;curved=0;rounded=0;endSize=8;startSize=8;exitX=0.5;exitY=0;exitDx=0;exitDy=0;" parent="1" source="hZd-YJ0nv2Q1k8pyYEeG-24" edge="1">
          <mxGeometry width="50" height="50" relative="1" as="geometry">
            <mxPoint x="350" y="380" as="sourcePoint" />
            <mxPoint x="590" y="760" as="targetPoint" />
            <Array as="points">
              <mxPoint x="450" y="440" />
            </Array>
          </mxGeometry>
        </mxCell>
        <mxCell id="hZd-YJ0nv2Q1k8pyYEeG-57" value="" style="edgeStyle=elbowEdgeStyle;elbow=vertical;endArrow=classic;html=1;curved=0;rounded=0;endSize=8;startSize=8;exitX=0.5;exitY=0;exitDx=0;exitDy=0;" parent="1" source="hZd-YJ0nv2Q1k8pyYEeG-25" edge="1">
          <mxGeometry width="50" height="50" relative="1" as="geometry">
            <mxPoint x="-150" y="460" as="sourcePoint" />
            <mxPoint x="230" y="760" as="targetPoint" />
            <Array as="points">
              <mxPoint x="420" y="460" />
              <mxPoint x="90" y="440" />
            </Array>
          </mxGeometry>
        </mxCell>
        <mxCell id="hZd-YJ0nv2Q1k8pyYEeG-62" value="Per_sel" style="text;html=1;align=center;verticalAlign=middle;whiteSpace=wrap;rounded=0;fillColor=#f8cecc;strokeColor=#b85450;" parent="1" vertex="1">
          <mxGeometry x="60" y="760" width="60" height="30" as="geometry" />
        </mxCell>
        <mxCell id="hZd-YJ0nv2Q1k8pyYEeG-64" value="Per_sel" style="text;html=1;align=center;verticalAlign=middle;whiteSpace=wrap;rounded=0;fillColor=#f8cecc;strokeColor=#b85450;" parent="1" vertex="1">
          <mxGeometry x="490" y="760" width="60" height="30" as="geometry" />
        </mxCell>
        <mxCell id="hZd-YJ0nv2Q1k8pyYEeG-65" value="0" style="text;html=1;align=center;verticalAlign=middle;whiteSpace=wrap;rounded=0;" parent="1" vertex="1">
          <mxGeometry x="140" y="760" width="60" height="30" as="geometry" />
        </mxCell>
        <mxCell id="hZd-YJ0nv2Q1k8pyYEeG-66" value="1" style="text;html=1;align=center;verticalAlign=middle;whiteSpace=wrap;rounded=0;" parent="1" vertex="1">
          <mxGeometry x="200" y="760" width="60" height="30" as="geometry" />
        </mxCell>
        <mxCell id="hZd-YJ0nv2Q1k8pyYEeG-67" value="0" style="text;html=1;align=center;verticalAlign=middle;whiteSpace=wrap;rounded=0;" parent="1" vertex="1">
          <mxGeometry x="600" y="760" width="60" height="30" as="geometry" />
        </mxCell>
        <mxCell id="hZd-YJ0nv2Q1k8pyYEeG-68" value="1" style="text;html=1;align=center;verticalAlign=middle;whiteSpace=wrap;rounded=0;" parent="1" vertex="1">
          <mxGeometry x="560" y="760" width="60" height="30" as="geometry" />
        </mxCell>
        <mxCell id="hZd-YJ0nv2Q1k8pyYEeG-69" value="" style="endArrow=classic;html=1;rounded=0;exitX=0.5;exitY=0;exitDx=0;exitDy=0;entryX=0.25;entryY=1;entryDx=0;entryDy=0;" parent="1" source="hZd-YJ0nv2Q1k8pyYEeG-21" target="hZd-YJ0nv2Q1k8pyYEeG-73" edge="1">
          <mxGeometry width="50" height="50" relative="1" as="geometry">
            <mxPoint x="160" y="880" as="sourcePoint" />
            <mxPoint x="200" y="870" as="targetPoint" />
          </mxGeometry>
        </mxCell>
        <mxCell id="hZd-YJ0nv2Q1k8pyYEeG-70" value="X" style="text;html=1;align=center;verticalAlign=middle;whiteSpace=wrap;rounded=0;" parent="1" vertex="1">
          <mxGeometry x="200" y="830" width="60" height="30" as="geometry" />
        </mxCell>
        <mxCell id="hZd-YJ0nv2Q1k8pyYEeG-71" value="" style="endArrow=classic;html=1;rounded=0;exitX=0.5;exitY=0;exitDx=0;exitDy=0;entryX=0.833;entryY=1;entryDx=0;entryDy=0;entryPerimeter=0;" parent="1" source="hZd-YJ0nv2Q1k8pyYEeG-46" target="hZd-YJ0nv2Q1k8pyYEeG-74" edge="1">
          <mxGeometry width="50" height="50" relative="1" as="geometry">
            <mxPoint x="630" y="900" as="sourcePoint" />
            <mxPoint x="620" y="870" as="targetPoint" />
          </mxGeometry>
        </mxCell>
        <mxCell id="hZd-YJ0nv2Q1k8pyYEeG-72" value="Y" style="text;html=1;align=center;verticalAlign=middle;whiteSpace=wrap;rounded=0;" parent="1" vertex="1">
          <mxGeometry x="620" y="830" width="60" height="30" as="geometry" />
        </mxCell>
        <mxCell id="hZd-YJ0nv2Q1k8pyYEeG-73" value="" style="shape=trapezoid;perimeter=trapezoidPerimeter;whiteSpace=wrap;html=1;fixedSize=1;rotation=180;" parent="1" vertex="1">
          <mxGeometry x="110" y="900" width="120" height="60" as="geometry" />
        </mxCell>
        <mxCell id="hZd-YJ0nv2Q1k8pyYEeG-74" value="" style="shape=trapezoid;perimeter=trapezoidPerimeter;whiteSpace=wrap;html=1;fixedSize=1;rotation=180;" parent="1" vertex="1">
          <mxGeometry x="600" y="900" width="120" height="60" as="geometry" />
        </mxCell>
        <mxCell id="hZd-YJ0nv2Q1k8pyYEeG-75" value="" style="endArrow=classic;html=1;rounded=0;exitX=0.5;exitY=0;exitDx=0;exitDy=0;" parent="1" source="hZd-YJ0nv2Q1k8pyYEeG-73" edge="1">
          <mxGeometry width="50" height="50" relative="1" as="geometry">
            <mxPoint x="140" y="1040" as="sourcePoint" />
            <mxPoint x="170" y="1050" as="targetPoint" />
          </mxGeometry>
        </mxCell>
        <mxCell id="hZd-YJ0nv2Q1k8pyYEeG-76" value="X_src" style="text;html=1;align=center;verticalAlign=middle;whiteSpace=wrap;rounded=0;" parent="1" vertex="1">
          <mxGeometry x="170" y="990" width="60" height="30" as="geometry" />
        </mxCell>
        <mxCell id="hZd-YJ0nv2Q1k8pyYEeG-77" value="" style="endArrow=classic;html=1;rounded=0;exitX=0.5;exitY=0;exitDx=0;exitDy=0;" parent="1" edge="1">
          <mxGeometry width="50" height="50" relative="1" as="geometry">
            <mxPoint x="660" y="960" as="sourcePoint" />
            <mxPoint x="660" y="1050" as="targetPoint" />
          </mxGeometry>
        </mxCell>
        <mxCell id="hZd-YJ0nv2Q1k8pyYEeG-79" value="Y_Src" style="text;html=1;align=center;verticalAlign=middle;whiteSpace=wrap;rounded=0;" parent="1" vertex="1">
          <mxGeometry x="670" y="980" width="60" height="30" as="geometry" />
        </mxCell>
        <mxCell id="hZd-YJ0nv2Q1k8pyYEeG-85" value="" style="group" parent="1" vertex="1" connectable="0">
          <mxGeometry x="115" y="1050" width="110" height="210" as="geometry" />
        </mxCell>
        <mxCell id="hZd-YJ0nv2Q1k8pyYEeG-80" value="D" style="text;html=1;align=center;verticalAlign=middle;whiteSpace=wrap;rounded=0;" parent="hZd-YJ0nv2Q1k8pyYEeG-85" vertex="1">
          <mxGeometry x="25" width="60" height="30" as="geometry" />
        </mxCell>
        <mxCell id="hZd-YJ0nv2Q1k8pyYEeG-97" value="" style="group" parent="hZd-YJ0nv2Q1k8pyYEeG-85" vertex="1" connectable="0">
          <mxGeometry width="110" height="210" as="geometry" />
        </mxCell>
        <mxCell id="hZd-YJ0nv2Q1k8pyYEeG-32" value="" style="rounded=0;whiteSpace=wrap;html=1;" parent="hZd-YJ0nv2Q1k8pyYEeG-97" vertex="1">
          <mxGeometry width="110" height="210" as="geometry" />
        </mxCell>
        <mxCell id="hZd-YJ0nv2Q1k8pyYEeG-81" value="Q" style="text;html=1;align=center;verticalAlign=middle;whiteSpace=wrap;rounded=0;" parent="hZd-YJ0nv2Q1k8pyYEeG-97" vertex="1">
          <mxGeometry x="25" y="180" width="60" height="30" as="geometry" />
        </mxCell>
        <mxCell id="hZd-YJ0nv2Q1k8pyYEeG-82" value="En" style="text;html=1;align=center;verticalAlign=middle;whiteSpace=wrap;rounded=0;" parent="hZd-YJ0nv2Q1k8pyYEeG-97" vertex="1">
          <mxGeometry y="140" width="60" height="30" as="geometry" />
        </mxCell>
        <mxCell id="hZd-YJ0nv2Q1k8pyYEeG-83" value="CLK" style="text;html=1;align=center;verticalAlign=middle;whiteSpace=wrap;rounded=0;" parent="hZd-YJ0nv2Q1k8pyYEeG-97" vertex="1">
          <mxGeometry y="40" width="60" height="30" as="geometry" />
        </mxCell>
        <mxCell id="hZd-YJ0nv2Q1k8pyYEeG-84" value="RST" style="text;html=1;align=center;verticalAlign=middle;whiteSpace=wrap;rounded=0;" parent="hZd-YJ0nv2Q1k8pyYEeG-97" vertex="1">
          <mxGeometry y="90" width="60" height="30" as="geometry" />
        </mxCell>
        <mxCell id="hZd-YJ0nv2Q1k8pyYEeG-130" value="D" style="text;html=1;align=center;verticalAlign=middle;whiteSpace=wrap;rounded=0;" parent="hZd-YJ0nv2Q1k8pyYEeG-97" vertex="1">
          <mxGeometry x="25" y="10" width="60" height="30" as="geometry" />
        </mxCell>
        <mxCell id="hZd-YJ0nv2Q1k8pyYEeG-86" value="" style="endArrow=classic;html=1;rounded=0;entryX=0;entryY=0.5;entryDx=0;entryDy=0;" parent="1" target="hZd-YJ0nv2Q1k8pyYEeG-83" edge="1">
          <mxGeometry width="50" height="50" relative="1" as="geometry">
            <mxPoint x="40" y="1105" as="sourcePoint" />
            <mxPoint x="90" y="1070" as="targetPoint" />
          </mxGeometry>
        </mxCell>
        <mxCell id="hZd-YJ0nv2Q1k8pyYEeG-87" value="" style="endArrow=classic;html=1;rounded=0;entryX=0;entryY=0.5;entryDx=0;entryDy=0;" parent="1" edge="1">
          <mxGeometry width="50" height="50" relative="1" as="geometry">
            <mxPoint x="40" y="1154.5" as="sourcePoint" />
            <mxPoint x="120" y="1154.5" as="targetPoint" />
          </mxGeometry>
        </mxCell>
        <mxCell id="hZd-YJ0nv2Q1k8pyYEeG-88" value="" style="endArrow=classic;html=1;rounded=0;entryX=0;entryY=0.5;entryDx=0;entryDy=0;" parent="1" edge="1">
          <mxGeometry width="50" height="50" relative="1" as="geometry">
            <mxPoint x="40" y="1200" as="sourcePoint" />
            <mxPoint x="120" y="1200" as="targetPoint" />
          </mxGeometry>
        </mxCell>
        <mxCell id="hZd-YJ0nv2Q1k8pyYEeG-140" value="" style="group" parent="1" vertex="1" connectable="0">
          <mxGeometry x="605" y="1050" width="110" height="210" as="geometry" />
        </mxCell>
        <mxCell id="hZd-YJ0nv2Q1k8pyYEeG-141" value="D" style="text;html=1;align=center;verticalAlign=middle;whiteSpace=wrap;rounded=0;" parent="hZd-YJ0nv2Q1k8pyYEeG-140" vertex="1">
          <mxGeometry x="25" width="60" height="30" as="geometry" />
        </mxCell>
        <mxCell id="hZd-YJ0nv2Q1k8pyYEeG-142" value="" style="group" parent="hZd-YJ0nv2Q1k8pyYEeG-140" vertex="1" connectable="0">
          <mxGeometry width="110" height="210" as="geometry" />
        </mxCell>
        <mxCell id="hZd-YJ0nv2Q1k8pyYEeG-143" value="" style="rounded=0;whiteSpace=wrap;html=1;" parent="hZd-YJ0nv2Q1k8pyYEeG-142" vertex="1">
          <mxGeometry width="110" height="210" as="geometry" />
        </mxCell>
        <mxCell id="hZd-YJ0nv2Q1k8pyYEeG-144" value="Q" style="text;html=1;align=center;verticalAlign=middle;whiteSpace=wrap;rounded=0;" parent="hZd-YJ0nv2Q1k8pyYEeG-142" vertex="1">
          <mxGeometry x="25" y="180" width="60" height="30" as="geometry" />
        </mxCell>
        <mxCell id="hZd-YJ0nv2Q1k8pyYEeG-145" value="En" style="text;html=1;align=center;verticalAlign=middle;whiteSpace=wrap;rounded=0;" parent="hZd-YJ0nv2Q1k8pyYEeG-142" vertex="1">
          <mxGeometry y="140" width="60" height="30" as="geometry" />
        </mxCell>
        <mxCell id="hZd-YJ0nv2Q1k8pyYEeG-146" value="CLK" style="text;html=1;align=center;verticalAlign=middle;whiteSpace=wrap;rounded=0;" parent="hZd-YJ0nv2Q1k8pyYEeG-142" vertex="1">
          <mxGeometry y="40" width="60" height="30" as="geometry" />
        </mxCell>
        <mxCell id="hZd-YJ0nv2Q1k8pyYEeG-147" value="RST" style="text;html=1;align=center;verticalAlign=middle;whiteSpace=wrap;rounded=0;" parent="hZd-YJ0nv2Q1k8pyYEeG-142" vertex="1">
          <mxGeometry y="90" width="60" height="30" as="geometry" />
        </mxCell>
        <mxCell id="hZd-YJ0nv2Q1k8pyYEeG-148" value="D" style="text;html=1;align=center;verticalAlign=middle;whiteSpace=wrap;rounded=0;" parent="hZd-YJ0nv2Q1k8pyYEeG-142" vertex="1">
          <mxGeometry x="25" y="10" width="60" height="30" as="geometry" />
        </mxCell>
        <mxCell id="hZd-YJ0nv2Q1k8pyYEeG-149" value="" style="endArrow=classic;html=1;rounded=0;entryX=0;entryY=0.5;entryDx=0;entryDy=0;" parent="1" edge="1">
          <mxGeometry width="50" height="50" relative="1" as="geometry">
            <mxPoint x="530" y="1099" as="sourcePoint" />
            <mxPoint x="605" y="1099" as="targetPoint" />
          </mxGeometry>
        </mxCell>
        <mxCell id="hZd-YJ0nv2Q1k8pyYEeG-150" value="" style="endArrow=classic;html=1;rounded=0;entryX=0;entryY=0.5;entryDx=0;entryDy=0;" parent="1" edge="1">
          <mxGeometry width="50" height="50" relative="1" as="geometry">
            <mxPoint x="530" y="1154.5" as="sourcePoint" />
            <mxPoint x="610" y="1154.5" as="targetPoint" />
          </mxGeometry>
        </mxCell>
        <mxCell id="hZd-YJ0nv2Q1k8pyYEeG-151" value="" style="endArrow=classic;html=1;rounded=0;entryX=0;entryY=0.5;entryDx=0;entryDy=0;" parent="1" edge="1">
          <mxGeometry width="50" height="50" relative="1" as="geometry">
            <mxPoint x="525" y="1200" as="sourcePoint" />
            <mxPoint x="605" y="1200" as="targetPoint" />
          </mxGeometry>
        </mxCell>
        <mxCell id="hZd-YJ0nv2Q1k8pyYEeG-152" value="CLK" style="text;html=1;align=center;verticalAlign=middle;whiteSpace=wrap;rounded=0;" parent="1" vertex="1">
          <mxGeometry x="30" y="1070" width="60" height="30" as="geometry" />
        </mxCell>
        <mxCell id="hZd-YJ0nv2Q1k8pyYEeG-154" value="RST" style="text;html=1;align=center;verticalAlign=middle;whiteSpace=wrap;rounded=0;" parent="1" vertex="1">
          <mxGeometry x="40" y="1130" width="60" height="30" as="geometry" />
        </mxCell>
        <mxCell id="hZd-YJ0nv2Q1k8pyYEeG-155" value="X_ld" style="text;html=1;align=center;verticalAlign=middle;whiteSpace=wrap;rounded=0;fillColor=#f8cecc;strokeColor=#b85450;" parent="1" vertex="1">
          <mxGeometry x="40" y="1170" width="60" height="30" as="geometry" />
        </mxCell>
        <mxCell id="hZd-YJ0nv2Q1k8pyYEeG-156" value="CLK" style="text;html=1;align=center;verticalAlign=middle;whiteSpace=wrap;rounded=0;" parent="1" vertex="1">
          <mxGeometry x="540" y="1070" width="60" height="30" as="geometry" />
        </mxCell>
        <mxCell id="hZd-YJ0nv2Q1k8pyYEeG-157" value="RST" style="text;html=1;align=center;verticalAlign=middle;whiteSpace=wrap;rounded=0;" parent="1" vertex="1">
          <mxGeometry x="540" y="1120" width="60" height="30" as="geometry" />
        </mxCell>
        <mxCell id="hZd-YJ0nv2Q1k8pyYEeG-158" value="Y_ld" style="text;html=1;align=center;verticalAlign=middle;whiteSpace=wrap;rounded=0;fillColor=#f8cecc;strokeColor=#b85450;" parent="1" vertex="1">
          <mxGeometry x="530" y="1170" width="60" height="30" as="geometry" />
        </mxCell>
        <mxCell id="hZd-YJ0nv2Q1k8pyYEeG-184" value="" style="group" parent="1" vertex="1" connectable="0">
          <mxGeometry x="370" y="1480" width="110" height="210" as="geometry" />
        </mxCell>
        <mxCell id="hZd-YJ0nv2Q1k8pyYEeG-185" value="D" style="text;html=1;align=center;verticalAlign=middle;whiteSpace=wrap;rounded=0;" parent="hZd-YJ0nv2Q1k8pyYEeG-184" vertex="1">
          <mxGeometry x="25" width="60" height="30" as="geometry" />
        </mxCell>
        <mxCell id="hZd-YJ0nv2Q1k8pyYEeG-186" value="" style="group" parent="hZd-YJ0nv2Q1k8pyYEeG-184" vertex="1" connectable="0">
          <mxGeometry width="110" height="210" as="geometry" />
        </mxCell>
        <mxCell id="hZd-YJ0nv2Q1k8pyYEeG-187" value="" style="rounded=0;whiteSpace=wrap;html=1;" parent="hZd-YJ0nv2Q1k8pyYEeG-186" vertex="1">
          <mxGeometry width="110" height="210" as="geometry" />
        </mxCell>
        <mxCell id="hZd-YJ0nv2Q1k8pyYEeG-188" value="Q" style="text;html=1;align=center;verticalAlign=middle;whiteSpace=wrap;rounded=0;" parent="hZd-YJ0nv2Q1k8pyYEeG-186" vertex="1">
          <mxGeometry x="25" y="180" width="60" height="30" as="geometry" />
        </mxCell>
        <mxCell id="hZd-YJ0nv2Q1k8pyYEeG-189" value="En" style="text;html=1;align=center;verticalAlign=middle;whiteSpace=wrap;rounded=0;" parent="hZd-YJ0nv2Q1k8pyYEeG-186" vertex="1">
          <mxGeometry y="140" width="60" height="30" as="geometry" />
        </mxCell>
        <mxCell id="hZd-YJ0nv2Q1k8pyYEeG-190" value="CLK" style="text;html=1;align=center;verticalAlign=middle;whiteSpace=wrap;rounded=0;" parent="hZd-YJ0nv2Q1k8pyYEeG-186" vertex="1">
          <mxGeometry y="40" width="60" height="30" as="geometry" />
        </mxCell>
        <mxCell id="hZd-YJ0nv2Q1k8pyYEeG-191" value="RST" style="text;html=1;align=center;verticalAlign=middle;whiteSpace=wrap;rounded=0;" parent="hZd-YJ0nv2Q1k8pyYEeG-186" vertex="1">
          <mxGeometry y="90" width="60" height="30" as="geometry" />
        </mxCell>
        <mxCell id="hZd-YJ0nv2Q1k8pyYEeG-192" value="D" style="text;html=1;align=center;verticalAlign=middle;whiteSpace=wrap;rounded=0;" parent="hZd-YJ0nv2Q1k8pyYEeG-186" vertex="1">
          <mxGeometry x="25" y="10" width="60" height="30" as="geometry" />
        </mxCell>
        <mxCell id="hZd-YJ0nv2Q1k8pyYEeG-193" value="" style="endArrow=classic;html=1;rounded=0;entryX=0;entryY=0.5;entryDx=0;entryDy=0;" parent="1" edge="1">
          <mxGeometry width="50" height="50" relative="1" as="geometry">
            <mxPoint x="295" y="1529" as="sourcePoint" />
            <mxPoint x="370" y="1529" as="targetPoint" />
          </mxGeometry>
        </mxCell>
        <mxCell id="hZd-YJ0nv2Q1k8pyYEeG-194" value="" style="endArrow=classic;html=1;rounded=0;entryX=0;entryY=0.5;entryDx=0;entryDy=0;" parent="1" edge="1">
          <mxGeometry width="50" height="50" relative="1" as="geometry">
            <mxPoint x="295" y="1584.5" as="sourcePoint" />
            <mxPoint x="375" y="1584.5" as="targetPoint" />
          </mxGeometry>
        </mxCell>
        <mxCell id="hZd-YJ0nv2Q1k8pyYEeG-195" value="" style="endArrow=classic;html=1;rounded=0;entryX=0;entryY=0.5;entryDx=0;entryDy=0;" parent="1" edge="1">
          <mxGeometry width="50" height="50" relative="1" as="geometry">
            <mxPoint x="290" y="1630" as="sourcePoint" />
            <mxPoint x="370" y="1630" as="targetPoint" />
          </mxGeometry>
        </mxCell>
        <mxCell id="hZd-YJ0nv2Q1k8pyYEeG-196" value="CLK" style="text;html=1;align=center;verticalAlign=middle;whiteSpace=wrap;rounded=0;" parent="1" vertex="1">
          <mxGeometry x="305" y="1500" width="60" height="30" as="geometry" />
        </mxCell>
        <mxCell id="hZd-YJ0nv2Q1k8pyYEeG-197" value="RST" style="text;html=1;align=center;verticalAlign=middle;whiteSpace=wrap;rounded=0;" parent="1" vertex="1">
          <mxGeometry x="305" y="1550" width="60" height="30" as="geometry" />
        </mxCell>
        <mxCell id="hZd-YJ0nv2Q1k8pyYEeG-198" value="R_ld" style="text;html=1;align=center;verticalAlign=middle;whiteSpace=wrap;rounded=0;fillColor=#f8cecc;strokeColor=#b85450;" parent="1" vertex="1">
          <mxGeometry x="295" y="1600" width="60" height="30" as="geometry" />
        </mxCell>
        <mxCell id="hZd-YJ0nv2Q1k8pyYEeG-201" value="" style="edgeStyle=elbowEdgeStyle;elbow=vertical;endArrow=classic;html=1;curved=0;rounded=0;endSize=8;startSize=8;exitX=0.5;exitY=1;exitDx=0;exitDy=0;entryX=0.128;entryY=-0.036;entryDx=0;entryDy=0;entryPerimeter=0;" parent="1" source="hZd-YJ0nv2Q1k8pyYEeG-81" target="hZd-YJ0nv2Q1k8pyYEeG-205" edge="1">
          <mxGeometry width="50" height="50" relative="1" as="geometry">
            <mxPoint x="170" y="1340" as="sourcePoint" />
            <mxPoint x="340" y="1340" as="targetPoint" />
            <Array as="points">
              <mxPoint x="260" y="1290" />
            </Array>
          </mxGeometry>
        </mxCell>
        <mxCell id="hZd-YJ0nv2Q1k8pyYEeG-202" value="" style="edgeStyle=elbowEdgeStyle;elbow=vertical;endArrow=classic;html=1;curved=0;rounded=0;endSize=8;startSize=8;exitX=0.5;exitY=1;exitDx=0;exitDy=0;entryX=0.831;entryY=0.009;entryDx=0;entryDy=0;entryPerimeter=0;" parent="1" source="hZd-YJ0nv2Q1k8pyYEeG-144" target="hZd-YJ0nv2Q1k8pyYEeG-205" edge="1">
          <mxGeometry width="50" height="50" relative="1" as="geometry">
            <mxPoint x="690" y="1260" as="sourcePoint" />
            <mxPoint x="460" y="1340" as="targetPoint" />
            <Array as="points">
              <mxPoint x="560" y="1290" />
            </Array>
          </mxGeometry>
        </mxCell>
        <mxCell id="hZd-YJ0nv2Q1k8pyYEeG-205" value="" style="rounded=0;whiteSpace=wrap;html=1;" parent="1" vertex="1">
          <mxGeometry x="320" y="1350" width="170" height="70" as="geometry" />
        </mxCell>
        <mxCell id="hZd-YJ0nv2Q1k8pyYEeG-206" value="Reminder divier" style="text;html=1;align=center;verticalAlign=middle;whiteSpace=wrap;rounded=0;" parent="1" vertex="1">
          <mxGeometry x="380" y="1360" width="60" height="30" as="geometry" />
        </mxCell>
        <mxCell id="hZd-YJ0nv2Q1k8pyYEeG-207" value="" style="endArrow=classic;html=1;rounded=0;exitX=0.549;exitY=1.043;exitDx=0;exitDy=0;exitPerimeter=0;" parent="1" source="hZd-YJ0nv2Q1k8pyYEeG-205" edge="1">
          <mxGeometry width="50" height="50" relative="1" as="geometry">
            <mxPoint x="360" y="1500" as="sourcePoint" />
            <mxPoint x="413" y="1480" as="targetPoint" />
          </mxGeometry>
        </mxCell>
        <mxCell id="hZd-YJ0nv2Q1k8pyYEeG-208" value="Div_out" style="text;html=1;align=center;verticalAlign=middle;whiteSpace=wrap;rounded=0;" parent="1" vertex="1">
          <mxGeometry x="410" y="1430" width="60" height="30" as="geometry" />
        </mxCell>
        <mxCell id="hZd-YJ0nv2Q1k8pyYEeG-209" value="X_out" style="text;html=1;align=center;verticalAlign=middle;whiteSpace=wrap;rounded=0;" parent="1" vertex="1">
          <mxGeometry x="190" y="1260" width="60" height="30" as="geometry" />
        </mxCell>
        <mxCell id="hZd-YJ0nv2Q1k8pyYEeG-211" value="Y_out" style="text;html=1;align=center;verticalAlign=middle;whiteSpace=wrap;rounded=0;" parent="1" vertex="1">
          <mxGeometry x="660" y="1270" width="60" height="30" as="geometry" />
        </mxCell>
        <mxCell id="hZd-YJ0nv2Q1k8pyYEeG-223" value="" style="endArrow=classic;html=1;rounded=0;exitX=0.5;exitY=1;exitDx=0;exitDy=0;entryX=0.25;entryY=1;entryDx=0;entryDy=0;" parent="1" source="hZd-YJ0nv2Q1k8pyYEeG-188" target="hZd-YJ0nv2Q1k8pyYEeG-74" edge="1">
          <mxGeometry width="50" height="50" relative="1" as="geometry">
            <mxPoint x="400" y="1680" as="sourcePoint" />
            <mxPoint x="820" y="1360" as="targetPoint" />
            <Array as="points">
              <mxPoint x="425" y="1820" />
              <mxPoint x="820" y="1820" />
              <mxPoint x="810" y="760" />
              <mxPoint x="690" y="760" />
            </Array>
          </mxGeometry>
        </mxCell>
        <mxCell id="hZd-YJ0nv2Q1k8pyYEeG-225" value="R" style="text;html=1;align=center;verticalAlign=middle;whiteSpace=wrap;rounded=0;" parent="1" vertex="1">
          <mxGeometry x="410" y="1700" width="60" height="30" as="geometry" />
        </mxCell>
        <mxCell id="hZd-YJ0nv2Q1k8pyYEeG-228" value="" style="endArrow=classic;html=1;rounded=0;entryX=1;entryY=0.5;entryDx=0;entryDy=0;" parent="1" target="hZd-YJ0nv2Q1k8pyYEeG-74" edge="1">
          <mxGeometry width="50" height="50" relative="1" as="geometry">
            <mxPoint x="540" y="930" as="sourcePoint" />
            <mxPoint x="560" y="910" as="targetPoint" />
          </mxGeometry>
        </mxCell>
        <mxCell id="hZd-YJ0nv2Q1k8pyYEeG-229" value="Y_sel" style="text;html=1;align=center;verticalAlign=middle;whiteSpace=wrap;rounded=0;fillColor=#f8cecc;strokeColor=#b85450;" parent="1" vertex="1">
          <mxGeometry x="540" y="890" width="60" height="30" as="geometry" />
        </mxCell>
        <mxCell id="hZd-YJ0nv2Q1k8pyYEeG-230" value="" style="endArrow=classic;html=1;rounded=0;entryX=1;entryY=0.5;entryDx=0;entryDy=0;" parent="1" edge="1">
          <mxGeometry width="50" height="50" relative="1" as="geometry">
            <mxPoint x="50" y="940" as="sourcePoint" />
            <mxPoint x="120" y="940" as="targetPoint" />
          </mxGeometry>
        </mxCell>
        <mxCell id="hZd-YJ0nv2Q1k8pyYEeG-231" value="X_sel" style="text;html=1;align=center;verticalAlign=middle;whiteSpace=wrap;rounded=0;fillColor=#f8cecc;strokeColor=#b85450;" parent="1" vertex="1">
          <mxGeometry x="50" y="900" width="60" height="30" as="geometry" />
        </mxCell>
        <mxCell id="hZd-YJ0nv2Q1k8pyYEeG-232" value="1" style="text;html=1;align=center;verticalAlign=middle;whiteSpace=wrap;rounded=0;" parent="1" vertex="1">
          <mxGeometry x="600" y="910" width="60" height="30" as="geometry" />
        </mxCell>
        <mxCell id="hZd-YJ0nv2Q1k8pyYEeG-233" value="0" style="text;html=1;align=center;verticalAlign=middle;whiteSpace=wrap;rounded=0;" parent="1" vertex="1">
          <mxGeometry x="655" y="910" width="60" height="30" as="geometry" />
        </mxCell>
        <mxCell id="hZd-YJ0nv2Q1k8pyYEeG-234" value="" style="endArrow=classic;html=1;rounded=0;entryX=0.75;entryY=1;entryDx=0;entryDy=0;" parent="1" target="hZd-YJ0nv2Q1k8pyYEeG-73" edge="1">
          <mxGeometry width="50" height="50" relative="1" as="geometry">
            <mxPoint x="460" y="1290" as="sourcePoint" />
            <mxPoint x="460" y="850" as="targetPoint" />
            <Array as="points">
              <mxPoint x="470" y="880" />
              <mxPoint x="300" y="880" />
              <mxPoint x="140" y="880" />
            </Array>
          </mxGeometry>
        </mxCell>
        <mxCell id="hZd-YJ0nv2Q1k8pyYEeG-235" value="1" style="text;html=1;align=center;verticalAlign=middle;whiteSpace=wrap;rounded=0;" parent="1" vertex="1">
          <mxGeometry x="165" y="910" width="60" height="30" as="geometry" />
        </mxCell>
        <mxCell id="hZd-YJ0nv2Q1k8pyYEeG-236" value="0" style="text;html=1;align=center;verticalAlign=middle;whiteSpace=wrap;rounded=0;" parent="1" vertex="1">
          <mxGeometry x="115" y="910" width="60" height="30" as="geometry" />
        </mxCell>
        <mxCell id="hZd-YJ0nv2Q1k8pyYEeG-239" value="" style="rounded=0;whiteSpace=wrap;html=1;" parent="1" vertex="1">
          <mxGeometry x="600" y="1355" width="180" height="65" as="geometry" />
        </mxCell>
        <mxCell id="hZd-YJ0nv2Q1k8pyYEeG-240" value="" style="endArrow=classic;html=1;rounded=0;exitX=0;exitY=0.75;exitDx=0;exitDy=0;entryX=0.331;entryY=0.043;entryDx=0;entryDy=0;entryPerimeter=0;" parent="1" source="hZd-YJ0nv2Q1k8pyYEeG-211" target="hZd-YJ0nv2Q1k8pyYEeG-239" edge="1">
          <mxGeometry width="50" height="50" relative="1" as="geometry">
            <mxPoint x="660" y="1360" as="sourcePoint" />
            <mxPoint x="710" y="1310" as="targetPoint" />
          </mxGeometry>
        </mxCell>
        <mxCell id="hZd-YJ0nv2Q1k8pyYEeG-241" value="Com 0" style="text;html=1;align=center;verticalAlign=middle;whiteSpace=wrap;rounded=0;" parent="1" vertex="1">
          <mxGeometry x="655" y="1372.5" width="60" height="30" as="geometry" />
        </mxCell>
        <mxCell id="hZd-YJ0nv2Q1k8pyYEeG-243" value="" style="endArrow=classic;html=1;rounded=0;" parent="1" source="hZd-YJ0nv2Q1k8pyYEeG-239" edge="1">
          <mxGeometry width="50" height="50" relative="1" as="geometry">
            <mxPoint x="620" y="1520" as="sourcePoint" />
            <mxPoint x="690" y="1490" as="targetPoint" />
          </mxGeometry>
        </mxCell>
        <mxCell id="hZd-YJ0nv2Q1k8pyYEeG-244" value="Y_eq_0" style="text;html=1;align=center;verticalAlign=middle;whiteSpace=wrap;rounded=0;fillColor=#f8cecc;strokeColor=#b85450;" parent="1" vertex="1">
          <mxGeometry x="690" y="1440" width="60" height="30" as="geometry" />
        </mxCell>
        <mxCell id="hZd-YJ0nv2Q1k8pyYEeG-245" value="" style="group" parent="1" vertex="1" connectable="0">
          <mxGeometry x="120" y="1410" width="110" height="210" as="geometry" />
        </mxCell>
        <mxCell id="hZd-YJ0nv2Q1k8pyYEeG-246" value="D" style="text;html=1;align=center;verticalAlign=middle;whiteSpace=wrap;rounded=0;" parent="hZd-YJ0nv2Q1k8pyYEeG-245" vertex="1">
          <mxGeometry x="25" width="60" height="30" as="geometry" />
        </mxCell>
        <mxCell id="hZd-YJ0nv2Q1k8pyYEeG-247" value="" style="group" parent="hZd-YJ0nv2Q1k8pyYEeG-245" vertex="1" connectable="0">
          <mxGeometry width="110" height="210" as="geometry" />
        </mxCell>
        <mxCell id="hZd-YJ0nv2Q1k8pyYEeG-248" value="" style="rounded=0;whiteSpace=wrap;html=1;" parent="hZd-YJ0nv2Q1k8pyYEeG-247" vertex="1">
          <mxGeometry width="110" height="210" as="geometry" />
        </mxCell>
        <mxCell id="hZd-YJ0nv2Q1k8pyYEeG-249" value="Q" style="text;html=1;align=center;verticalAlign=middle;whiteSpace=wrap;rounded=0;" parent="hZd-YJ0nv2Q1k8pyYEeG-247" vertex="1">
          <mxGeometry x="25" y="180" width="60" height="30" as="geometry" />
        </mxCell>
        <mxCell id="hZd-YJ0nv2Q1k8pyYEeG-250" value="En" style="text;html=1;align=center;verticalAlign=middle;whiteSpace=wrap;rounded=0;" parent="hZd-YJ0nv2Q1k8pyYEeG-247" vertex="1">
          <mxGeometry y="140" width="60" height="30" as="geometry" />
        </mxCell>
        <mxCell id="hZd-YJ0nv2Q1k8pyYEeG-251" value="CLK" style="text;html=1;align=center;verticalAlign=middle;whiteSpace=wrap;rounded=0;" parent="hZd-YJ0nv2Q1k8pyYEeG-247" vertex="1">
          <mxGeometry y="40" width="60" height="30" as="geometry" />
        </mxCell>
        <mxCell id="hZd-YJ0nv2Q1k8pyYEeG-252" value="RST" style="text;html=1;align=center;verticalAlign=middle;whiteSpace=wrap;rounded=0;" parent="hZd-YJ0nv2Q1k8pyYEeG-247" vertex="1">
          <mxGeometry y="90" width="60" height="30" as="geometry" />
        </mxCell>
        <mxCell id="hZd-YJ0nv2Q1k8pyYEeG-253" value="D" style="text;html=1;align=center;verticalAlign=middle;whiteSpace=wrap;rounded=0;" parent="hZd-YJ0nv2Q1k8pyYEeG-247" vertex="1">
          <mxGeometry x="25" y="10" width="60" height="30" as="geometry" />
        </mxCell>
        <mxCell id="hZd-YJ0nv2Q1k8pyYEeG-254" value="" style="endArrow=classic;html=1;rounded=0;entryX=0.003;entryY=0.334;entryDx=0;entryDy=0;exitX=0;exitY=1;exitDx=0;exitDy=0;entryPerimeter=0;" parent="1" source="hZd-YJ0nv2Q1k8pyYEeG-257" target="hZd-YJ0nv2Q1k8pyYEeG-251" edge="1">
          <mxGeometry width="50" height="50" relative="1" as="geometry">
            <mxPoint x="35" y="1459" as="sourcePoint" />
            <mxPoint x="110" y="1459" as="targetPoint" />
          </mxGeometry>
        </mxCell>
        <mxCell id="hZd-YJ0nv2Q1k8pyYEeG-255" value="" style="endArrow=classic;html=1;rounded=0;entryX=0;entryY=0.5;entryDx=0;entryDy=0;" parent="1" edge="1">
          <mxGeometry width="50" height="50" relative="1" as="geometry">
            <mxPoint x="35" y="1514.5" as="sourcePoint" />
            <mxPoint x="115" y="1514.5" as="targetPoint" />
          </mxGeometry>
        </mxCell>
        <mxCell id="hZd-YJ0nv2Q1k8pyYEeG-256" value="" style="endArrow=classic;html=1;rounded=0;entryX=0;entryY=0.5;entryDx=0;entryDy=0;" parent="1" edge="1">
          <mxGeometry width="50" height="50" relative="1" as="geometry">
            <mxPoint x="40" y="1560" as="sourcePoint" />
            <mxPoint x="120" y="1560" as="targetPoint" />
          </mxGeometry>
        </mxCell>
        <mxCell id="hZd-YJ0nv2Q1k8pyYEeG-257" value="CLK" style="text;html=1;align=center;verticalAlign=middle;whiteSpace=wrap;rounded=0;" parent="1" vertex="1">
          <mxGeometry x="30" y="1430" width="85" height="30" as="geometry" />
        </mxCell>
        <mxCell id="hZd-YJ0nv2Q1k8pyYEeG-258" value="RST" style="text;html=1;align=center;verticalAlign=middle;whiteSpace=wrap;rounded=0;" parent="1" vertex="1">
          <mxGeometry x="55" y="1480" width="60" height="30" as="geometry" />
        </mxCell>
        <mxCell id="hZd-YJ0nv2Q1k8pyYEeG-259" value="GCD_ld" style="text;html=1;align=center;verticalAlign=middle;whiteSpace=wrap;rounded=0;fillColor=#f8cecc;strokeColor=#b85450;" parent="1" vertex="1">
          <mxGeometry x="45" y="1530" width="60" height="30" as="geometry" />
        </mxCell>
        <mxCell id="hZd-YJ0nv2Q1k8pyYEeG-260" value="" style="endArrow=classic;html=1;rounded=0;" parent="1" target="hZd-YJ0nv2Q1k8pyYEeG-248" edge="1">
          <mxGeometry width="50" height="50" relative="1" as="geometry">
            <mxPoint x="170" y="1290" as="sourcePoint" />
            <mxPoint x="210" y="1330" as="targetPoint" />
          </mxGeometry>
        </mxCell>
        <mxCell id="hZd-YJ0nv2Q1k8pyYEeG-261" value="" style="endArrow=classic;html=1;rounded=0;exitX=0.5;exitY=1;exitDx=0;exitDy=0;" parent="1" source="hZd-YJ0nv2Q1k8pyYEeG-249" edge="1">
          <mxGeometry width="50" height="50" relative="1" as="geometry">
            <mxPoint x="130" y="1720" as="sourcePoint" />
            <mxPoint x="175" y="1920" as="targetPoint" />
          </mxGeometry>
        </mxCell>
        <mxCell id="hZd-YJ0nv2Q1k8pyYEeG-262" value="GCD_o" style="text;html=1;align=center;verticalAlign=middle;whiteSpace=wrap;rounded=0;fillColor=#dae8fc;strokeColor=#6c8ebf;" parent="1" vertex="1">
          <mxGeometry x="180" y="1870" width="60" height="30" as="geometry" />
        </mxCell>
        <mxCell id="hZd-YJ0nv2Q1k8pyYEeG-265" value="Controller" style="text;html=1;align=center;verticalAlign=middle;whiteSpace=wrap;rounded=0;" parent="1" vertex="1">
          <mxGeometry x="-230" y="590" width="60" height="30" as="geometry" />
        </mxCell>
        <mxCell id="hZd-YJ0nv2Q1k8pyYEeG-266" value="" style="rounded=0;whiteSpace=wrap;html=1;" parent="1" vertex="1">
          <mxGeometry x="-550" y="710" width="220" height="450" as="geometry" />
        </mxCell>
        <mxCell id="hZd-YJ0nv2Q1k8pyYEeG-267" value="Combinational Logic&lt;span style=&quot;background-color: initial;&quot;&gt;&amp;nbsp;&lt;/span&gt;" style="text;html=1;align=center;verticalAlign=middle;whiteSpace=wrap;rounded=0;" parent="1" vertex="1">
          <mxGeometry x="-500" y="850" width="120" height="160" as="geometry" />
        </mxCell>
        <mxCell id="hZd-YJ0nv2Q1k8pyYEeG-269" value="Done_o" style="text;html=1;align=center;verticalAlign=middle;whiteSpace=wrap;rounded=0;" parent="1" vertex="1">
          <mxGeometry x="-590" y="660" width="60" height="30" as="geometry" />
        </mxCell>
        <mxCell id="hZd-YJ0nv2Q1k8pyYEeG-271" value="Start_i" style="text;html=1;align=center;verticalAlign=middle;whiteSpace=wrap;rounded=0;" parent="1" vertex="1">
          <mxGeometry x="-485" y="660" width="60" height="30" as="geometry" />
        </mxCell>
        <mxCell id="hZd-YJ0nv2Q1k8pyYEeG-272" value="" style="endArrow=classic;html=1;rounded=0;entryX=0.157;entryY=-0.009;entryDx=0;entryDy=0;entryPerimeter=0;" parent="1" edge="1">
          <mxGeometry width="50" height="50" relative="1" as="geometry">
            <mxPoint x="-425" y="641.5" as="sourcePoint" />
            <mxPoint x="-425" y="708.5" as="targetPoint" />
          </mxGeometry>
        </mxCell>
        <mxCell id="hZd-YJ0nv2Q1k8pyYEeG-274" value="" style="endArrow=classic;html=1;rounded=0;exitX=0.996;exitY=0.047;exitDx=0;exitDy=0;exitPerimeter=0;" parent="1" source="hZd-YJ0nv2Q1k8pyYEeG-266" edge="1">
          <mxGeometry width="50" height="50" relative="1" as="geometry">
            <mxPoint x="-300" y="770" as="sourcePoint" />
            <mxPoint x="-250" y="730" as="targetPoint" />
            <Array as="points" />
          </mxGeometry>
        </mxCell>
        <mxCell id="hZd-YJ0nv2Q1k8pyYEeG-275" value="Per_sel" style="text;html=1;align=center;verticalAlign=middle;whiteSpace=wrap;rounded=0;" parent="1" vertex="1">
          <mxGeometry x="-320" y="700" width="60" height="30" as="geometry" />
        </mxCell>
        <mxCell id="hZd-YJ0nv2Q1k8pyYEeG-276" value="X_sel" style="text;html=1;align=center;verticalAlign=middle;whiteSpace=wrap;rounded=0;" parent="1" vertex="1">
          <mxGeometry x="-320" y="740" width="40" height="20" as="geometry" />
        </mxCell>
        <mxCell id="hZd-YJ0nv2Q1k8pyYEeG-277" value="" style="endArrow=classic;html=1;rounded=0;exitX=1.005;exitY=0.072;exitDx=0;exitDy=0;exitPerimeter=0;" parent="1" edge="1">
          <mxGeometry width="50" height="50" relative="1" as="geometry">
            <mxPoint x="-330" y="770" as="sourcePoint" />
            <mxPoint x="-251" y="770" as="targetPoint" />
          </mxGeometry>
        </mxCell>
        <mxCell id="hZd-YJ0nv2Q1k8pyYEeG-279" value="Y_sel" style="text;html=1;align=center;verticalAlign=middle;whiteSpace=wrap;rounded=0;" parent="1" vertex="1">
          <mxGeometry x="-320" y="774.5" width="40" height="20" as="geometry" />
        </mxCell>
        <mxCell id="hZd-YJ0nv2Q1k8pyYEeG-280" value="" style="endArrow=classic;html=1;rounded=0;exitX=1.005;exitY=0.072;exitDx=0;exitDy=0;exitPerimeter=0;" parent="1" edge="1">
          <mxGeometry width="50" height="50" relative="1" as="geometry">
            <mxPoint x="-330" y="804.5" as="sourcePoint" />
            <mxPoint x="-251" y="804.5" as="targetPoint" />
          </mxGeometry>
        </mxCell>
        <mxCell id="hZd-YJ0nv2Q1k8pyYEeG-281" value="X_ld" style="text;html=1;align=center;verticalAlign=middle;whiteSpace=wrap;rounded=0;" parent="1" vertex="1">
          <mxGeometry x="-319.5" y="810" width="40" height="20" as="geometry" />
        </mxCell>
        <mxCell id="hZd-YJ0nv2Q1k8pyYEeG-282" value="" style="endArrow=classic;html=1;rounded=0;exitX=1.005;exitY=0.072;exitDx=0;exitDy=0;exitPerimeter=0;" parent="1" edge="1">
          <mxGeometry width="50" height="50" relative="1" as="geometry">
            <mxPoint x="-329.5" y="840" as="sourcePoint" />
            <mxPoint x="-250.5" y="840" as="targetPoint" />
          </mxGeometry>
        </mxCell>
        <mxCell id="hZd-YJ0nv2Q1k8pyYEeG-283" value="Y_ld" style="text;html=1;align=center;verticalAlign=middle;whiteSpace=wrap;rounded=0;" parent="1" vertex="1">
          <mxGeometry x="-319.5" y="850" width="40" height="20" as="geometry" />
        </mxCell>
        <mxCell id="hZd-YJ0nv2Q1k8pyYEeG-284" value="" style="endArrow=classic;html=1;rounded=0;exitX=1.005;exitY=0.072;exitDx=0;exitDy=0;exitPerimeter=0;" parent="1" edge="1">
          <mxGeometry width="50" height="50" relative="1" as="geometry">
            <mxPoint x="-329.5" y="880" as="sourcePoint" />
            <mxPoint x="-250.5" y="880" as="targetPoint" />
          </mxGeometry>
        </mxCell>
        <mxCell id="hZd-YJ0nv2Q1k8pyYEeG-285" value="R_ld" style="text;html=1;align=center;verticalAlign=middle;whiteSpace=wrap;rounded=0;" parent="1" vertex="1">
          <mxGeometry x="-320" y="890" width="40" height="20" as="geometry" />
        </mxCell>
        <mxCell id="hZd-YJ0nv2Q1k8pyYEeG-286" value="" style="endArrow=classic;html=1;rounded=0;exitX=1.005;exitY=0.072;exitDx=0;exitDy=0;exitPerimeter=0;" parent="1" edge="1">
          <mxGeometry width="50" height="50" relative="1" as="geometry">
            <mxPoint x="-330" y="920" as="sourcePoint" />
            <mxPoint x="-251" y="920" as="targetPoint" />
          </mxGeometry>
        </mxCell>
        <mxCell id="hZd-YJ0nv2Q1k8pyYEeG-288" value="" style="endArrow=classic;html=1;rounded=0;exitX=1.005;exitY=0.072;exitDx=0;exitDy=0;exitPerimeter=0;" parent="1" edge="1">
          <mxGeometry width="50" height="50" relative="1" as="geometry">
            <mxPoint x="-329.5" y="959" as="sourcePoint" />
            <mxPoint x="-250.5" y="959" as="targetPoint" />
          </mxGeometry>
        </mxCell>
        <mxCell id="hZd-YJ0nv2Q1k8pyYEeG-289" value="GCD_ld" style="text;html=1;align=center;verticalAlign=middle;whiteSpace=wrap;rounded=0;" parent="1" vertex="1">
          <mxGeometry x="-319.5" y="940" width="40" height="10" as="geometry" />
        </mxCell>
        <mxCell id="hZd-YJ0nv2Q1k8pyYEeG-294" value="" style="endArrow=classic;html=1;rounded=0;entryX=1.001;entryY=0.639;entryDx=0;entryDy=0;entryPerimeter=0;" parent="1" target="hZd-YJ0nv2Q1k8pyYEeG-266" edge="1">
          <mxGeometry width="50" height="50" relative="1" as="geometry">
            <mxPoint x="-250" y="998" as="sourcePoint" />
            <mxPoint x="-150" y="990" as="targetPoint" />
          </mxGeometry>
        </mxCell>
        <mxCell id="hZd-YJ0nv2Q1k8pyYEeG-295" value="X_lt_Y" style="text;html=1;align=center;verticalAlign=middle;whiteSpace=wrap;rounded=0;" parent="1" vertex="1">
          <mxGeometry x="-310" y="980" width="40" height="10" as="geometry" />
        </mxCell>
        <mxCell id="hZd-YJ0nv2Q1k8pyYEeG-296" value="" style="endArrow=classic;html=1;rounded=0;entryX=1.001;entryY=0.639;entryDx=0;entryDy=0;entryPerimeter=0;" parent="1" edge="1">
          <mxGeometry width="50" height="50" relative="1" as="geometry">
            <mxPoint x="-250" y="1049" as="sourcePoint" />
            <mxPoint x="-330" y="1049" as="targetPoint" />
          </mxGeometry>
        </mxCell>
        <mxCell id="hZd-YJ0nv2Q1k8pyYEeG-297" value="Y_eq_0" style="text;html=1;align=center;verticalAlign=middle;whiteSpace=wrap;rounded=0;" parent="1" vertex="1">
          <mxGeometry x="-310" y="1030" width="40" height="10" as="geometry" />
        </mxCell>
        <mxCell id="hZd-YJ0nv2Q1k8pyYEeG-298" value="" style="endArrow=classic;html=1;rounded=0;exitX=0.219;exitY=-0.001;exitDx=0;exitDy=0;exitPerimeter=0;" parent="1" source="hZd-YJ0nv2Q1k8pyYEeG-266" edge="1">
          <mxGeometry width="50" height="50" relative="1" as="geometry">
            <mxPoint x="-540" y="660" as="sourcePoint" />
            <mxPoint x="-500" y="640" as="targetPoint" />
          </mxGeometry>
        </mxCell>
        <mxCell id="hZd-YJ0nv2Q1k8pyYEeG-300" value="State Regster" style="rounded=0;whiteSpace=wrap;html=1;" parent="1" vertex="1">
          <mxGeometry x="-500" y="1200" width="120" height="60" as="geometry" />
        </mxCell>
        <mxCell id="hZd-YJ0nv2Q1k8pyYEeG-303" value="RST = &#39;1&#39;" style="rounded=0;whiteSpace=wrap;html=1;" parent="1" vertex="1">
          <mxGeometry x="1250" y="200" width="120" height="60" as="geometry" />
        </mxCell>
        <mxCell id="hZd-YJ0nv2Q1k8pyYEeG-304" value="" style="endArrow=classic;html=1;rounded=0;exitX=0.5;exitY=1;exitDx=0;exitDy=0;" parent="1" source="hZd-YJ0nv2Q1k8pyYEeG-303" edge="1">
          <mxGeometry width="50" height="50" relative="1" as="geometry">
            <mxPoint x="1300" y="360" as="sourcePoint" />
            <mxPoint x="1310" y="320" as="targetPoint" />
          </mxGeometry>
        </mxCell>
        <mxCell id="hZd-YJ0nv2Q1k8pyYEeG-305" value="Clear all register&lt;div&gt;Done = &#39;0&#39;&lt;/div&gt;" style="rounded=0;whiteSpace=wrap;html=1;" parent="1" vertex="1">
          <mxGeometry x="1250" y="320" width="120" height="60" as="geometry" />
        </mxCell>
        <mxCell id="hZd-YJ0nv2Q1k8pyYEeG-306" value="" style="endArrow=classic;html=1;rounded=0;exitX=0.5;exitY=1;exitDx=0;exitDy=0;" parent="1" source="hZd-YJ0nv2Q1k8pyYEeG-305" edge="1">
          <mxGeometry width="50" height="50" relative="1" as="geometry">
            <mxPoint x="1300" y="460" as="sourcePoint" />
            <mxPoint x="1310" y="450" as="targetPoint" />
          </mxGeometry>
        </mxCell>
        <mxCell id="hZd-YJ0nv2Q1k8pyYEeG-307" value="Start_i = &#39;1&#39;" style="rhombus;whiteSpace=wrap;html=1;" parent="1" vertex="1">
          <mxGeometry x="1270" y="450" width="80" height="80" as="geometry" />
        </mxCell>
        <mxCell id="hZd-YJ0nv2Q1k8pyYEeG-308" value="" style="endArrow=classic;html=1;rounded=0;exitX=1;exitY=0.5;exitDx=0;exitDy=0;" parent="1" source="hZd-YJ0nv2Q1k8pyYEeG-307" edge="1">
          <mxGeometry width="50" height="50" relative="1" as="geometry">
            <mxPoint x="1390" y="510" as="sourcePoint" />
            <mxPoint x="1310" y="400" as="targetPoint" />
            <Array as="points">
              <mxPoint x="1470" y="490" />
              <mxPoint x="1470" y="400" />
            </Array>
          </mxGeometry>
        </mxCell>
        <mxCell id="hZd-YJ0nv2Q1k8pyYEeG-309" value="F" style="text;html=1;align=center;verticalAlign=middle;whiteSpace=wrap;rounded=0;" parent="1" vertex="1">
          <mxGeometry x="1370" y="460" width="60" height="30" as="geometry" />
        </mxCell>
        <mxCell id="hZd-YJ0nv2Q1k8pyYEeG-310" value="" style="endArrow=classic;html=1;rounded=0;exitX=0.5;exitY=1;exitDx=0;exitDy=0;" parent="1" source="hZd-YJ0nv2Q1k8pyYEeG-307" edge="1">
          <mxGeometry width="50" height="50" relative="1" as="geometry">
            <mxPoint x="1300" y="590" as="sourcePoint" />
            <mxPoint x="1310" y="580" as="targetPoint" />
          </mxGeometry>
        </mxCell>
        <mxCell id="hZd-YJ0nv2Q1k8pyYEeG-311" value="T" style="text;html=1;align=center;verticalAlign=middle;whiteSpace=wrap;rounded=0;" parent="1" vertex="1">
          <mxGeometry x="1300" y="530" width="60" height="30" as="geometry" />
        </mxCell>
        <mxCell id="hZd-YJ0nv2Q1k8pyYEeG-313" value="X_lt_Y =&#39;1&#39;" style="rhombus;whiteSpace=wrap;html=1;" parent="1" vertex="1">
          <mxGeometry x="1270" y="580" width="80" height="80" as="geometry" />
        </mxCell>
        <mxCell id="hZd-YJ0nv2Q1k8pyYEeG-314" value="" style="endArrow=classic;html=1;rounded=0;exitX=0.5;exitY=1;exitDx=0;exitDy=0;" parent="1" source="hZd-YJ0nv2Q1k8pyYEeG-313" target="hZd-YJ0nv2Q1k8pyYEeG-315" edge="1">
          <mxGeometry width="50" height="50" relative="1" as="geometry">
            <mxPoint x="1310" y="720" as="sourcePoint" />
            <mxPoint x="1310" y="710" as="targetPoint" />
          </mxGeometry>
        </mxCell>
        <mxCell id="hZd-YJ0nv2Q1k8pyYEeG-315" value="Per_sel = &#39;1&#39;" style="rounded=0;whiteSpace=wrap;html=1;" parent="1" vertex="1">
          <mxGeometry x="1250" y="710" width="120" height="60" as="geometry" />
        </mxCell>
        <mxCell id="hZd-YJ0nv2Q1k8pyYEeG-316" value="" style="endArrow=classic;html=1;rounded=0;exitX=0.5;exitY=1;exitDx=0;exitDy=0;" parent="1" source="hZd-YJ0nv2Q1k8pyYEeG-315" edge="1">
          <mxGeometry width="50" height="50" relative="1" as="geometry">
            <mxPoint x="1330" y="850" as="sourcePoint" />
            <mxPoint x="1310" y="830" as="targetPoint" />
          </mxGeometry>
        </mxCell>
        <mxCell id="hZd-YJ0nv2Q1k8pyYEeG-317" value="X_sel = &#39;1&#39;&lt;br&gt;X_ld = &#39;1&#39;" style="rounded=0;whiteSpace=wrap;html=1;" parent="1" vertex="1">
          <mxGeometry x="1250" y="830" width="120" height="60" as="geometry" />
        </mxCell>
        <mxCell id="hZd-YJ0nv2Q1k8pyYEeG-318" value="" style="endArrow=classic;html=1;rounded=0;exitX=0.5;exitY=1;exitDx=0;exitDy=0;" parent="1" source="hZd-YJ0nv2Q1k8pyYEeG-317" edge="1">
          <mxGeometry width="50" height="50" relative="1" as="geometry">
            <mxPoint x="1320" y="990" as="sourcePoint" />
            <mxPoint x="1310" y="960" as="targetPoint" />
          </mxGeometry>
        </mxCell>
        <mxCell id="hZd-YJ0nv2Q1k8pyYEeG-319" value="Y_sel = &#39;1&#39;&lt;div&gt;Y_ld = &#39;1&#39;&lt;/div&gt;" style="rounded=0;whiteSpace=wrap;html=1;" parent="1" vertex="1">
          <mxGeometry x="1250" y="960" width="120" height="60" as="geometry" />
        </mxCell>
        <mxCell id="hZd-YJ0nv2Q1k8pyYEeG-320" value="" style="endArrow=classic;html=1;rounded=0;" parent="1" edge="1">
          <mxGeometry width="50" height="50" relative="1" as="geometry">
            <mxPoint x="1350" y="620" as="sourcePoint" />
            <mxPoint x="1310" y="800" as="targetPoint" />
            <Array as="points">
              <mxPoint x="1470" y="620" />
              <mxPoint x="1470" y="800" />
            </Array>
          </mxGeometry>
        </mxCell>
        <mxCell id="hZd-YJ0nv2Q1k8pyYEeG-321" value="F" style="text;html=1;align=center;verticalAlign=middle;whiteSpace=wrap;rounded=0;" parent="1" vertex="1">
          <mxGeometry x="1380" y="580" width="60" height="30" as="geometry" />
        </mxCell>
        <mxCell id="hZd-YJ0nv2Q1k8pyYEeG-322" value="T" style="text;html=1;align=center;verticalAlign=middle;whiteSpace=wrap;rounded=0;" parent="1" vertex="1">
          <mxGeometry x="1300" y="670" width="60" height="30" as="geometry" />
        </mxCell>
        <mxCell id="hZd-YJ0nv2Q1k8pyYEeG-324" value="" style="endArrow=classic;html=1;rounded=0;exitX=0.5;exitY=1;exitDx=0;exitDy=0;" parent="1" source="hZd-YJ0nv2Q1k8pyYEeG-319" edge="1">
          <mxGeometry width="50" height="50" relative="1" as="geometry">
            <mxPoint x="1340" y="1150" as="sourcePoint" />
            <mxPoint x="1310" y="1100" as="targetPoint" />
          </mxGeometry>
        </mxCell>
        <mxCell id="hZd-YJ0nv2Q1k8pyYEeG-325" value="Y_eq_0 = &#39;1&#39;" style="rhombus;whiteSpace=wrap;html=1;" parent="1" vertex="1">
          <mxGeometry x="1270" y="1100" width="80" height="80" as="geometry" />
        </mxCell>
        <mxCell id="hZd-YJ0nv2Q1k8pyYEeG-326" value="" style="endArrow=classic;html=1;rounded=0;exitX=0.5;exitY=1;exitDx=0;exitDy=0;" parent="1" source="hZd-YJ0nv2Q1k8pyYEeG-325" edge="1">
          <mxGeometry width="50" height="50" relative="1" as="geometry">
            <mxPoint x="1285" y="1255" as="sourcePoint" />
            <mxPoint x="1310" y="1220" as="targetPoint" />
          </mxGeometry>
        </mxCell>
        <mxCell id="hZd-YJ0nv2Q1k8pyYEeG-327" value="" style="endArrow=classic;html=1;rounded=0;exitX=1;exitY=0.5;exitDx=0;exitDy=0;" parent="1" source="hZd-YJ0nv2Q1k8pyYEeG-325" target="hZd-YJ0nv2Q1k8pyYEeG-336" edge="1">
          <mxGeometry width="50" height="50" relative="1" as="geometry">
            <mxPoint x="1400" y="1140" as="sourcePoint" />
            <mxPoint x="1440" y="1720" as="targetPoint" />
            <Array as="points">
              <mxPoint x="1440" y="1140" />
            </Array>
          </mxGeometry>
        </mxCell>
        <mxCell id="hZd-YJ0nv2Q1k8pyYEeG-328" value="T" style="text;html=1;align=center;verticalAlign=middle;whiteSpace=wrap;rounded=0;" parent="1" vertex="1">
          <mxGeometry x="1360" y="1110" width="60" height="30" as="geometry" />
        </mxCell>
        <mxCell id="hZd-YJ0nv2Q1k8pyYEeG-329" value="F" style="text;html=1;align=center;verticalAlign=middle;whiteSpace=wrap;rounded=0;" parent="1" vertex="1">
          <mxGeometry x="1310" y="1170" width="60" height="30" as="geometry" />
        </mxCell>
        <mxCell id="hZd-YJ0nv2Q1k8pyYEeG-330" value="R_ld = &#39;1&#39;" style="rounded=0;whiteSpace=wrap;html=1;" parent="1" vertex="1">
          <mxGeometry x="1250" y="1220" width="120" height="60" as="geometry" />
        </mxCell>
        <mxCell id="hZd-YJ0nv2Q1k8pyYEeG-331" value="" style="endArrow=classic;html=1;rounded=0;exitX=0.5;exitY=1;exitDx=0;exitDy=0;" parent="1" target="hZd-YJ0nv2Q1k8pyYEeG-332" edge="1">
          <mxGeometry width="50" height="50" relative="1" as="geometry">
            <mxPoint x="1310" y="1285" as="sourcePoint" />
            <mxPoint x="1310" y="1340" as="targetPoint" />
          </mxGeometry>
        </mxCell>
        <mxCell id="hZd-YJ0nv2Q1k8pyYEeG-332" value="X_ld = &#39;1&#39;" style="rounded=0;whiteSpace=wrap;html=1;" parent="1" vertex="1">
          <mxGeometry x="1250" y="1340" width="120" height="60" as="geometry" />
        </mxCell>
        <mxCell id="hZd-YJ0nv2Q1k8pyYEeG-333" value="Y_ld = &#39;1&#39;" style="rounded=0;whiteSpace=wrap;html=1;" parent="1" vertex="1">
          <mxGeometry x="1260" y="1450" width="120" height="60" as="geometry" />
        </mxCell>
        <mxCell id="hZd-YJ0nv2Q1k8pyYEeG-334" value="" style="endArrow=classic;html=1;rounded=0;exitX=0.5;exitY=1;exitDx=0;exitDy=0;entryX=0.419;entryY=0.01;entryDx=0;entryDy=0;entryPerimeter=0;" parent="1" source="hZd-YJ0nv2Q1k8pyYEeG-332" target="hZd-YJ0nv2Q1k8pyYEeG-333" edge="1">
          <mxGeometry width="50" height="50" relative="1" as="geometry">
            <mxPoint x="1330" y="1412.5" as="sourcePoint" />
            <mxPoint x="1380" y="1362.5" as="targetPoint" />
          </mxGeometry>
        </mxCell>
        <mxCell id="hZd-YJ0nv2Q1k8pyYEeG-335" value="" style="endArrow=classic;html=1;rounded=0;exitX=0.5;exitY=1;exitDx=0;exitDy=0;" parent="1" source="hZd-YJ0nv2Q1k8pyYEeG-333" edge="1">
          <mxGeometry width="50" height="50" relative="1" as="geometry">
            <mxPoint x="1310" y="1570" as="sourcePoint" />
            <mxPoint x="1310" y="1050" as="targetPoint" />
            <Array as="points">
              <mxPoint x="1320" y="1600" />
              <mxPoint x="1170" y="1600" />
              <mxPoint x="1170" y="1260" />
              <mxPoint x="1170" y="1050" />
            </Array>
          </mxGeometry>
        </mxCell>
        <mxCell id="hZd-YJ0nv2Q1k8pyYEeG-336" value="GCD_ld = &#39;1&#39;" style="rounded=0;whiteSpace=wrap;html=1;" parent="1" vertex="1">
          <mxGeometry x="1380" y="1690" width="120" height="60" as="geometry" />
        </mxCell>
        <mxCell id="hZd-YJ0nv2Q1k8pyYEeG-338" value="" style="endArrow=classic;html=1;rounded=0;exitX=0.5;exitY=1;exitDx=0;exitDy=0;" parent="1" source="hZd-YJ0nv2Q1k8pyYEeG-336" edge="1">
          <mxGeometry width="50" height="50" relative="1" as="geometry">
            <mxPoint x="1440" y="1830" as="sourcePoint" />
            <mxPoint x="1440" y="1790" as="targetPoint" />
          </mxGeometry>
        </mxCell>
        <mxCell id="hZd-YJ0nv2Q1k8pyYEeG-339" value="Done_o = &#39;1&#39;" style="rounded=0;whiteSpace=wrap;html=1;" parent="1" vertex="1">
          <mxGeometry x="1380" y="1790" width="120" height="60" as="geometry" />
        </mxCell>
        <mxCell id="hZd-YJ0nv2Q1k8pyYEeG-340" value="Start_i = &#39;0&#39;" style="rhombus;whiteSpace=wrap;html=1;" parent="1" vertex="1">
          <mxGeometry x="1400" y="1890" width="80" height="80" as="geometry" />
        </mxCell>
        <mxCell id="hZd-YJ0nv2Q1k8pyYEeG-341" value="" style="endArrow=classic;html=1;rounded=0;exitX=0.5;exitY=1;exitDx=0;exitDy=0;" parent="1" edge="1">
          <mxGeometry width="50" height="50" relative="1" as="geometry">
            <mxPoint x="1440" y="1850" as="sourcePoint" />
            <mxPoint x="1440" y="1890" as="targetPoint" />
          </mxGeometry>
        </mxCell>
        <mxCell id="hZd-YJ0nv2Q1k8pyYEeG-342" value="" style="endArrow=classic;html=1;rounded=0;exitX=1;exitY=0.5;exitDx=0;exitDy=0;" parent="1" source="hZd-YJ0nv2Q1k8pyYEeG-340" edge="1">
          <mxGeometry width="50" height="50" relative="1" as="geometry">
            <mxPoint x="1510" y="1920" as="sourcePoint" />
            <mxPoint x="1440" y="1870" as="targetPoint" />
            <Array as="points">
              <mxPoint x="1530" y="1930" />
              <mxPoint x="1530" y="1870" />
            </Array>
          </mxGeometry>
        </mxCell>
        <mxCell id="hZd-YJ0nv2Q1k8pyYEeG-343" value="F" style="text;html=1;align=center;verticalAlign=middle;whiteSpace=wrap;rounded=0;" parent="1" vertex="1">
          <mxGeometry x="1530" y="1890" width="60" height="30" as="geometry" />
        </mxCell>
        <mxCell id="hZd-YJ0nv2Q1k8pyYEeG-344" value="" style="endArrow=classic;html=1;rounded=0;exitX=0.5;exitY=1;exitDx=0;exitDy=0;" parent="1" source="hZd-YJ0nv2Q1k8pyYEeG-340" edge="1">
          <mxGeometry width="50" height="50" relative="1" as="geometry">
            <mxPoint x="1440" y="2000" as="sourcePoint" />
            <mxPoint x="1440" y="2000" as="targetPoint" />
          </mxGeometry>
        </mxCell>
        <mxCell id="hZd-YJ0nv2Q1k8pyYEeG-345" value="Done_o = &#39;0&#39;" style="rounded=0;whiteSpace=wrap;html=1;" parent="1" vertex="1">
          <mxGeometry x="1380" y="2000" width="120" height="60" as="geometry" />
        </mxCell>
        <mxCell id="hZd-YJ0nv2Q1k8pyYEeG-346" value="" style="endArrow=classic;html=1;rounded=0;exitX=0;exitY=0.5;exitDx=0;exitDy=0;" parent="1" source="hZd-YJ0nv2Q1k8pyYEeG-345" edge="1">
          <mxGeometry width="50" height="50" relative="1" as="geometry">
            <mxPoint x="1250" y="2020" as="sourcePoint" />
            <mxPoint x="1310" y="280" as="targetPoint" />
            <Array as="points">
              <mxPoint x="1000" y="2030" />
              <mxPoint x="1000" y="1180" />
              <mxPoint x="1000" y="280" />
            </Array>
          </mxGeometry>
        </mxCell>
        <mxCell id="hZd-YJ0nv2Q1k8pyYEeG-347" value="0" style="text;html=1;align=center;verticalAlign=middle;whiteSpace=wrap;rounded=0;" parent="1" vertex="1">
          <mxGeometry x="1520" y="330" width="60" height="30" as="geometry" />
        </mxCell>
        <mxCell id="hZd-YJ0nv2Q1k8pyYEeG-348" value="1" style="text;html=1;align=center;verticalAlign=middle;whiteSpace=wrap;rounded=0;" parent="1" vertex="1">
          <mxGeometry x="1530" y="470" width="60" height="30" as="geometry" />
        </mxCell>
        <mxCell id="hZd-YJ0nv2Q1k8pyYEeG-349" value="2" style="text;html=1;align=center;verticalAlign=middle;whiteSpace=wrap;rounded=0;" parent="1" vertex="1">
          <mxGeometry x="1530" y="590" width="60" height="30" as="geometry" />
        </mxCell>
        <mxCell id="hZd-YJ0nv2Q1k8pyYEeG-350" value="3" style="text;html=1;align=center;verticalAlign=middle;whiteSpace=wrap;rounded=0;" parent="1" vertex="1">
          <mxGeometry x="1540" y="710" width="60" height="30" as="geometry" />
        </mxCell>
        <mxCell id="hZd-YJ0nv2Q1k8pyYEeG-351" value="4" style="text;html=1;align=center;verticalAlign=middle;whiteSpace=wrap;rounded=0;" parent="1" vertex="1">
          <mxGeometry x="1540" y="840" width="60" height="30" as="geometry" />
        </mxCell>
        <mxCell id="hZd-YJ0nv2Q1k8pyYEeG-352" value="5" style="text;html=1;align=center;verticalAlign=middle;whiteSpace=wrap;rounded=0;" parent="1" vertex="1">
          <mxGeometry x="1530" y="950" width="60" height="30" as="geometry" />
        </mxCell>
        <mxCell id="hZd-YJ0nv2Q1k8pyYEeG-353" value="6" style="text;html=1;align=center;verticalAlign=middle;whiteSpace=wrap;rounded=0;" parent="1" vertex="1">
          <mxGeometry x="1540" y="1100" width="60" height="30" as="geometry" />
        </mxCell>
        <mxCell id="hZd-YJ0nv2Q1k8pyYEeG-354" value="7" style="text;html=1;align=center;verticalAlign=middle;whiteSpace=wrap;rounded=0;" parent="1" vertex="1">
          <mxGeometry x="1540" y="1220" width="60" height="30" as="geometry" />
        </mxCell>
        <mxCell id="hZd-YJ0nv2Q1k8pyYEeG-355" value="8" style="text;html=1;align=center;verticalAlign=middle;whiteSpace=wrap;rounded=0;" parent="1" vertex="1">
          <mxGeometry x="1550" y="1350" width="60" height="30" as="geometry" />
        </mxCell>
        <mxCell id="hZd-YJ0nv2Q1k8pyYEeG-356" value="9" style="text;html=1;align=center;verticalAlign=middle;whiteSpace=wrap;rounded=0;" parent="1" vertex="1">
          <mxGeometry x="1540" y="1450" width="60" height="30" as="geometry" />
        </mxCell>
        <mxCell id="hZd-YJ0nv2Q1k8pyYEeG-357" value="10" style="text;html=1;align=center;verticalAlign=middle;whiteSpace=wrap;rounded=0;" parent="1" vertex="1">
          <mxGeometry x="1550" y="1705" width="60" height="30" as="geometry" />
        </mxCell>
        <mxCell id="hZd-YJ0nv2Q1k8pyYEeG-358" value="11" style="text;html=1;align=center;verticalAlign=middle;whiteSpace=wrap;rounded=0;" parent="1" vertex="1">
          <mxGeometry x="1550" y="1800" width="60" height="30" as="geometry" />
        </mxCell>
        <mxCell id="hZd-YJ0nv2Q1k8pyYEeG-359" value="12" style="text;html=1;align=center;verticalAlign=middle;whiteSpace=wrap;rounded=0;" parent="1" vertex="1">
          <mxGeometry x="1570" y="1890" width="60" height="30" as="geometry" />
        </mxCell>
        <mxCell id="hZd-YJ0nv2Q1k8pyYEeG-360" value="13" style="text;html=1;align=center;verticalAlign=middle;whiteSpace=wrap;rounded=0;" parent="1" vertex="1">
          <mxGeometry x="1560" y="2010" width="60" height="30" as="geometry" />
        </mxCell>
        <mxCell id="bzjCQHaTKWtFxWdctdz7-1" value="X" style="text;html=1;align=center;verticalAlign=middle;whiteSpace=wrap;rounded=0;" parent="1" vertex="1">
          <mxGeometry x="320" y="1350" width="60" height="30" as="geometry" />
        </mxCell>
        <mxCell id="bzjCQHaTKWtFxWdctdz7-2" value="Y" style="text;html=1;align=center;verticalAlign=middle;whiteSpace=wrap;rounded=0;" parent="1" vertex="1">
          <mxGeometry x="430" y="1350" width="60" height="30" as="geometry" />
        </mxCell>
        <mxCell id="bzjCQHaTKWtFxWdctdz7-3" value="R" style="text;html=1;align=center;verticalAlign=middle;whiteSpace=wrap;rounded=0;" parent="1" vertex="1">
          <mxGeometry x="380" y="1390" width="60" height="30" as="geometry" />
        </mxCell>
      </root>
    </mxGraphModel>
  </diagram>
</mxfile>
